<svg xmlns="http://www.w3.org/2000/svg" viewBox="0 0 512 512">
  <defs>
    <linearGradient id="bg" x1="0%" y1="0%" x2="100%" y2="100%">
      <stop offset="0%" stop-color="#0f172a"/>
      <stop offset="100%" stop-color="#059669"/>
    </linearGradient>
    <linearGradient id="accent" x1="0%" y1="0%" x2="100%" y2="100%">
      <stop offset="0%" stop-color="#93c5fd"/>
      <stop offset="100%" stop-color="#ffffff"/>
    </linearGradient>
  </defs>

  <rect width="512" height="512" rx="120" fill="url(#bg)"/>

  <path
    d="M124 150h42l31 171c3 15 16 25 31 25h134c13 0 25-8 30-20l35-83H208"
    fill="none"
    stroke="url(#accent)"
    stroke-linecap="round"
    stroke-linejoin="round"
    stroke-width="28"
  />

  <circle cx="240" cy="390" r="25" fill="#ffffff"/>
  <circle cx="352" cy="390" r="25" fill="#ffffff"/>

  <path
    d="M306 125c-45 0-82 31-82 73c0 72 104 53 104 104c0 16-14 28-34 28c-24 0-41-12-53-25"
    fill="none"
    stroke="#ffffff"
    stroke-linecap="round"
    stroke-linejoin="round"
    stroke-width="32"
  />
  <path
    d="M315 124c27 5 49 21 63 46"
    fill="none"
    stroke="#93c5fd"
    stroke-linecap="round"
    stroke-width="24"
  />
  <path
    d="M298 100v35M294 329v35"
    fill="none"
    stroke="#ffffff"
    stroke-linecap="round"
    stroke-width="24"
  />
</svg>
